<mxfile host="app.diagrams.net" modified="2023-10-06T12:27:09.777Z" agent="Mozilla/5.0 (X11; Linux x86_64; rv:109.0) Gecko/20100101 Firefox/118.0" etag="Xqhswj_KGmSoWLnrfmn1" version="21.2.9" type="device">
  <diagram name="Page-1" id="JHjHdBuKQQRLe9tuodkp">
    <mxGraphModel dx="823" dy="443" grid="1" gridSize="10" guides="1" tooltips="1" connect="1" arrows="1" fold="1" page="1" pageScale="1" pageWidth="850" pageHeight="1100" math="0" shadow="0">
      <root>
        <mxCell id="0" />
        <mxCell id="1" parent="0" />
        <mxCell id="Ugyqt05SzabVaW04TBNP-9" value="" style="ellipse;whiteSpace=wrap;html=1;" vertex="1" parent="1">
          <mxGeometry x="280" y="80" width="320" height="320" as="geometry" />
        </mxCell>
        <mxCell id="Ugyqt05SzabVaW04TBNP-1" value="&lt;div&gt;Join&lt;/div&gt;" style="ellipse;whiteSpace=wrap;html=1;" vertex="1" parent="1">
          <mxGeometry x="570" y="270" width="40" height="40" as="geometry" />
        </mxCell>
        <mxCell id="Ugyqt05SzabVaW04TBNP-3" value="Gather state" style="rounded=0;whiteSpace=wrap;html=1;" vertex="1" parent="1">
          <mxGeometry x="405" y="70" width="80" height="40" as="geometry" />
        </mxCell>
        <mxCell id="Ugyqt05SzabVaW04TBNP-6" value="&lt;div&gt;Join&lt;/div&gt;" style="ellipse;whiteSpace=wrap;html=1;" vertex="1" parent="1">
          <mxGeometry x="260" y="210" width="40" height="40" as="geometry" />
        </mxCell>
        <mxCell id="Ugyqt05SzabVaW04TBNP-7" value="Apply to environment" style="rounded=0;whiteSpace=wrap;html=1;" vertex="1" parent="1">
          <mxGeometry x="270" y="130" width="80" height="40" as="geometry" />
        </mxCell>
        <mxCell id="Ugyqt05SzabVaW04TBNP-8" value="Compute strategy" style="rounded=0;whiteSpace=wrap;html=1;" vertex="1" parent="1">
          <mxGeometry x="490" y="350" width="80" height="40" as="geometry" />
        </mxCell>
        <mxCell id="Ugyqt05SzabVaW04TBNP-10" value="" style="endArrow=none;html=1;rounded=0;entryX=0.298;entryY=0.043;entryDx=0;entryDy=0;entryPerimeter=0;" edge="1" parent="1" target="Ugyqt05SzabVaW04TBNP-9">
          <mxGeometry width="50" height="50" relative="1" as="geometry">
            <mxPoint x="371" y="106" as="sourcePoint" />
            <mxPoint x="450" y="310" as="targetPoint" />
          </mxGeometry>
        </mxCell>
        <mxCell id="Ugyqt05SzabVaW04TBNP-11" value="" style="endArrow=none;html=1;rounded=0;entryX=0.296;entryY=0.044;entryDx=0;entryDy=0;entryPerimeter=0;" edge="1" parent="1" target="Ugyqt05SzabVaW04TBNP-9">
          <mxGeometry width="50" height="50" relative="1" as="geometry">
            <mxPoint x="360" y="85" as="sourcePoint" />
            <mxPoint x="230" y="100" as="targetPoint" />
          </mxGeometry>
        </mxCell>
        <mxCell id="Ugyqt05SzabVaW04TBNP-12" value="" style="rounded=0;whiteSpace=wrap;html=1;" vertex="1" parent="1">
          <mxGeometry x="560" y="190" width="80" height="40" as="geometry" />
        </mxCell>
        <mxCell id="Ugyqt05SzabVaW04TBNP-13" value="" style="rounded=0;whiteSpace=wrap;html=1;" vertex="1" parent="1">
          <mxGeometry x="550" y="180" width="80" height="40" as="geometry" />
        </mxCell>
        <mxCell id="Ugyqt05SzabVaW04TBNP-4" value="Mask for each agents" style="rounded=0;whiteSpace=wrap;html=1;" vertex="1" parent="1">
          <mxGeometry x="540" y="170" width="80" height="40" as="geometry" />
        </mxCell>
        <mxCell id="Ugyqt05SzabVaW04TBNP-15" value="" style="rounded=0;whiteSpace=wrap;html=1;" vertex="1" parent="1">
          <mxGeometry x="295" y="320" width="80" height="40" as="geometry" />
        </mxCell>
        <mxCell id="Ugyqt05SzabVaW04TBNP-14" value="" style="rounded=0;whiteSpace=wrap;html=1;" vertex="1" parent="1">
          <mxGeometry x="285" y="310" width="80" height="40" as="geometry" />
        </mxCell>
        <mxCell id="Ugyqt05SzabVaW04TBNP-5" value="Compute Agent Action" style="rounded=0;whiteSpace=wrap;html=1;" vertex="1" parent="1">
          <mxGeometry x="270" y="300" width="80" height="40" as="geometry" />
        </mxCell>
        <mxCell id="Ugyqt05SzabVaW04TBNP-16" value="Split" style="ellipse;whiteSpace=wrap;html=1;" vertex="1" parent="1">
          <mxGeometry x="405" y="380" width="40" height="40" as="geometry" />
        </mxCell>
        <mxCell id="Ugyqt05SzabVaW04TBNP-17" value="Split" style="ellipse;whiteSpace=wrap;html=1;" vertex="1" parent="1">
          <mxGeometry x="520" y="100" width="40" height="40" as="geometry" />
        </mxCell>
      </root>
    </mxGraphModel>
  </diagram>
</mxfile>
